<svg xmlns="http://www.w3.org/2000/svg" xmlns:xlink="http://www.w3.org/1999/xlink" width="1080" zoomAndPan="magnify" viewBox="0 0 810 1012.49997" height="1350" preserveAspectRatio="xMidYMid meet" version="1.0"><path fill="#e4b482" d="M 318.898438 872.390625 C 335.414062 828.171875 358.535156 787.109375 372.382812 741.832031 C 381.1875 713.035156 384.886719 683 393.765625 654.402344 C 402.144531 627.402344 414.851562 596.871094 429.039062 572.355469 C 443.625 547.144531 465.273438 520.988281 484.953125 498.886719 C 512.285156 468.191406 518.871094 421.964844 532.554688 383.546875 C 543.128906 353.863281 602.769531 218.054688 647.382812 278.863281 C 658.871094 294.523438 661.96875 311.917969 658.867188 330.464844 C 653.007812 365.511719 643.375 398.675781 641.242188 434.449219 C 639.691406 460.550781 636.414062 485.789062 625.613281 509.832031 C 616.871094 529.292969 611.246094 546.027344 610.316406 567.605469 C 609.566406 585.070312 610.761719 603.121094 608.09375 620.316406 C 606.347656 631.589844 600.511719 639.425781 598.117188 649.960938 C 617.917969 665.910156 642.480469 602.160156 674.285156 640.328125 C 699.253906 670.289062 665.296875 726.214844 642.1875 746.679688 C 630.671875 756.878906 623.882812 759.054688 610.308594 763.40625 C 601.359375 766.28125 593.910156 771.257812 588.519531 779.382812 C 580.796875 791.019531 580.40625 806.128906 573.871094 818.59375 C 564.648438 836.183594 551.902344 852.019531 541.636719 869.050781 C 531.292969 886.214844 522.734375 903.101562 515.441406 921.558594 C 511.582031 931.324219 508.09375 941.695312 497.378906 946.285156 C 485.253906 951.480469 467.445312 948.019531 454.503906 949.496094 C 432.578125 951.992188 411.664062 957.3125 390.160156 961.476562 C 368.644531 965.648438 353.917969 957.203125 333.238281 953.960938 C 320.742188 952.003906 315.3125 955.003906 310.140625 942.210938 C 301.796875 921.582031 309.941406 896.410156 318.898438 872.390625 Z M 318.898438 872.390625 " fill-opacity="1" fill-rule="nonzero"/><path fill="#cca175" d="M 506.394531 776.378906 C 509.195312 742.300781 531.414062 716.824219 540.179688 684.40625 C 545.03125 666.46875 542.695312 645.101562 551.527344 628.4375 C 562.402344 675.085938 521.480469 723.277344 512.375 767.609375 C 502.507812 815.636719 505.210938 873.863281 479.832031 917.367188 C 472.484375 887.964844 489.078125 847.972656 493.296875 817.839844 C 495.328125 803.359375 501.472656 786.355469 506.394531 776.378906 Z M 506.394531 776.378906 " fill-opacity="1" fill-rule="nonzero"/><path fill="#f6861f" d="M 482.011719 124.609375 C 477.226562 142.238281 464.207031 162.238281 446.804688 170.085938 C 434.601562 175.589844 416.949219 175.328125 403.703125 175.261719 C 390.703125 175.199219 377.085938 170.214844 364.769531 165.996094 C 350.976562 161.277344 338.109375 158.109375 323.921875 155.789062 C 311.359375 153.734375 298.484375 152.269531 286.121094 149.929688 C 278.464844 148.480469 266.433594 144.105469 266 134.347656 C 265.453125 122.0625 293.125 107.796875 303.027344 105.621094 C 316.820312 102.589844 330.535156 99.304688 344.363281 96.1875 C 361.4375 92.335938 378.046875 92.84375 395.203125 90.863281 C 409.933594 89.160156 424.335938 85.910156 438.410156 91.988281 C 446.105469 95.308594 454.4375 98.898438 461.738281 103.023438 C 467.132812 106.070312 472.765625 110.113281 477.472656 114.203125 C 482.929688 118.957031 482.4375 121.382812 482.011719 124.609375 Z M 482.011719 124.609375 " fill-opacity="1" fill-rule="nonzero"/><path fill="#e5e1e0" d="M 400.925781 179.144531 C 414.105469 171.277344 428.144531 165.714844 441.414062 158.632812 C 449.242188 154.457031 458.945312 150.261719 468.242188 151.199219 C 478.5 152.226562 487.722656 159.605469 496.421875 164.230469 C 500.605469 166.453125 505.414062 168.9375 509.863281 170.542969 C 513.664062 171.917969 518.511719 170.980469 521.898438 172.976562 C 527.332031 176.179688 528.980469 184.941406 533.414062 189.371094 C 538.738281 194.691406 542.6875 197.5 545.652344 204.792969 C 550.316406 216.25 540.492188 212.550781 531.980469 212.945312 C 510.160156 213.957031 488.867188 215.703125 466.871094 214.710938 C 446.648438 213.800781 429.121094 209.339844 412.808594 197.003906 C 409.089844 194.191406 405.367188 191.1875 401.714844 188.058594 C 399.804688 186.414062 393.15625 178.601562 400.925781 179.144531 Z M 400.925781 179.144531 " fill-opacity="1" fill-rule="nonzero"/><path fill="#45bde8" d="M 458.007812 193.429688 C 471.121094 187.199219 479.914062 186.6875 493.664062 187.933594 C 508.453125 189.277344 525.496094 190.75 540.066406 195.371094 C 564.925781 203.257812 588.753906 228.335938 603.324219 249.40625 C 608.335938 256.660156 623.445312 271.453125 619.554688 280.992188 C 609.378906 278.886719 595.914062 271.226562 586.601562 265.996094 C 567.191406 255.097656 550.769531 239.261719 530.96875 228.945312 C 515.078125 220.664062 501.015625 215.53125 483.339844 218.101562 C 473.890625 219.476562 458.960938 218.800781 450.230469 214.695312 C 435.109375 207.574219 446.945312 194.0625 458.007812 193.429688 Z M 458.007812 193.429688 " fill-opacity="1" fill-rule="nonzero"/><path fill="#c92127" d="M 448.316406 525.753906 C 445.589844 544.167969 439.421875 569.171875 425.457031 582.722656 C 404.625 577.296875 390.089844 613.875 405.007812 624.792969 C 409.011719 619.988281 411.789062 613.6875 413.96875 607.546875 C 429.742188 608.695312 436.53125 601.183594 449.394531 605.511719 C 453.550781 606.910156 459.171875 617.714844 465.675781 614.007812 C 475.039062 608.675781 466.675781 598.753906 462.167969 595.074219 C 456.503906 590.449219 444.9375 593.367188 441.523438 585.582031 C 436.953125 575.171875 450.453125 571.511719 455.242188 563.636719 C 463.246094 550.46875 461.460938 533.046875 456.675781 519.074219 C 449.117188 518.011719 447.792969 522.109375 448.316406 525.753906 Z M 448.316406 525.753906 " fill-opacity="1" fill-rule="nonzero"/><path fill="#c75027" d="M 320.117188 236.191406 C 313.554688 254.070312 298.054688 274.730469 297.582031 294.277344 C 297.222656 309.140625 306.15625 322.070312 313.382812 334.109375 C 327.789062 358.117188 340.410156 383.382812 355.632812 406.914062 C 371.53125 431.488281 377.277344 457.550781 392.492188 481.054688 C 407.53125 504.292969 426.472656 524.226562 441.578125 547.214844 C 451.726562 562.65625 462.28125 571.582031 475.691406 583.40625 C 488.796875 594.960938 496.230469 611.457031 510.335938 620.890625 C 528.394531 601.816406 520.304688 567.726562 514.207031 545.671875 C 510.972656 533.972656 501.285156 522.832031 501.9375 510.449219 C 502.578125 498.269531 508.273438 496.347656 504.667969 481.222656 C 486.632812 405.621094 488.964844 303.6875 420.542969 253.433594 C 402.8125 240.417969 339.300781 224.085938 320.117188 236.191406 Z M 320.117188 236.191406 " fill-opacity="1" fill-rule="nonzero"/><path fill="#388385" d="M 418.863281 222.316406 C 384.949219 211.847656 341.726562 209.257812 317.679688 237.050781 C 304.21875 252.609375 289.460938 310.648438 328.515625 298.871094 C 328.675781 308.089844 327.351562 315.054688 330.429688 323.6875 C 330.996094 325.277344 337.527344 326.625 339.089844 330.691406 C 340.847656 335.269531 338.671875 340.539062 341 345.417969 C 344.125 351.957031 368.242188 383.347656 376.402344 385.1875 C 397.617188 389.976562 405.683594 355.21875 409.335938 342.757812 C 417.417969 315.214844 442.578125 295.449219 448.351562 265.589844 C 451.953125 246.949219 437.886719 220.867188 418.390625 215.996094 C 417.082031 217.855469 416.105469 220.074219 418.863281 222.316406 Z M 418.863281 222.316406 " fill-opacity="1" fill-rule="nonzero"/><path fill="#0d8c94" d="M 394.609375 265.664062 C 376.683594 298.839844 349.675781 338.898438 362.082031 378.367188 C 366.941406 393.824219 396.109375 429.265625 409.898438 407.984375 C 408.292969 423.070312 419.074219 446.175781 438.800781 437.382812 C 453.992188 430.613281 447.5 404.339844 448.296875 389.65625 C 450.5625 347.882812 470.992188 301.957031 440.367188 266.660156 C 429.542969 254.183594 397.753906 248.898438 394.609375 265.664062 Z M 394.609375 265.664062 " fill-opacity="1" fill-rule="nonzero"/><path fill="#158fcf" d="M 489.890625 454.664062 C 498.875 520.414062 519.546875 584.957031 526.65625 650.597656 C 529.203125 674.128906 531.984375 699.246094 541.859375 720.964844 C 549.460938 737.675781 577.109375 750.195312 590.800781 735.984375 C 601.910156 724.449219 602.386719 694.441406 604.375 679.207031 C 607.484375 655.386719 611.140625 633.410156 611.15625 608.941406 C 611.199219 546.820312 616.398438 466.796875 582.132812 411.269531 C 566.046875 385.203125 534.597656 356.585938 503.457031 379.101562 C 479.488281 396.433594 481.65625 435.84375 489.890625 454.664062 Z M 489.890625 454.664062 " fill-opacity="1" fill-rule="nonzero"/><path fill="#008c9b" d="M 439.652344 315.949219 C 436.371094 391.574219 457.113281 492.496094 531.476562 532.730469 C 575.523438 556.566406 570.273438 492.773438 566.984375 465.933594 C 564.363281 444.535156 554.90625 432.027344 547.878906 412.03125 C 537.914062 383.679688 530.722656 362.601562 512.285156 337.105469 C 495.578125 314 484.90625 307.210938 456.976562 305.546875 C 428.09375 303.824219 429.011719 305.992188 439.652344 315.949219 Z M 439.652344 315.949219 " fill-opacity="1" fill-rule="nonzero"/><path fill="#00abbe" d="M 455.242188 326.351562 C 462.777344 340.574219 518.0625 449.773438 477.765625 451.1875 C 451.375 452.109375 426.296875 380.84375 424.066406 359.320312 C 422.597656 345.164062 419.324219 313.273438 430.996094 303.644531 C 447.71875 314.660156 445.917969 328.730469 455.242188 326.351562 Z M 455.242188 326.351562 " fill-opacity="1" fill-rule="nonzero"/><path fill="#45bde8" d="M 557.457031 326.351562 C 562.769531 377.964844 555.710938 430.175781 566.167969 480.652344 C 575.722656 526.777344 587.054688 577.972656 604.238281 622.003906 C 609.304688 634.992188 620.207031 663.929688 630.171875 646.195312 C 641.074219 626.789062 632.585938 587.792969 633.691406 565.632812 C 635.847656 522.453125 636.972656 473.132812 628.148438 430.335938 C 621.734375 399.207031 607.847656 366.320312 592.304688 338.765625 C 584.25 324.5 550.367188 301.097656 557.457031 326.351562 Z M 557.457031 326.351562 " fill-opacity="1" fill-rule="nonzero"/><path fill="#0188a9" d="M 498.550781 362.765625 C 514.449219 387.65625 527.117188 414.210938 543.214844 439.058594 C 558.050781 461.953125 578.882812 470.1875 581.707031 435.589844 C 583.859375 409.183594 574.675781 389.652344 564.765625 366.230469 C 555.625 344.617188 550.539062 305.011719 522.804688 302.082031 C 500 299.667969 487.054688 345.082031 498.550781 362.765625 Z M 498.550781 362.765625 " fill-opacity="1" fill-rule="nonzero"/><path fill="#0c7ca6" d="M 251.273438 133.710938 C 251.273438 109.359375 268.007812 92.25 289.199219 81.976562 C 304.023438 74.796875 319.085938 66.769531 334.839844 61.753906 C 347.367188 57.769531 359.453125 52.386719 372.238281 49.21875 C 378.464844 47.675781 384.019531 46.644531 390.316406 47.808594 C 396.445312 48.945312 402.261719 50.835938 408.542969 51.148438 C 414.640625 51.449219 420.613281 52.789062 426.703125 54.3125 C 432.285156 55.703125 437.460938 56.699219 442.621094 59.539062 C 450.441406 63.839844 457.058594 67.421875 463.417969 73.609375 C 470.191406 80.203125 477.410156 86.902344 486.058594 90.9375 C 496.257812 95.695312 501.492188 96.390625 505.375 107.527344 C 508.476562 116.429688 509.042969 125.375 513.347656 133.988281 C 515.644531 138.59375 519.253906 143.21875 521.144531 148.019531 C 522.941406 152.585938 521.914062 157.738281 522.351562 162.605469 C 523.4375 174.730469 533.441406 185.089844 538.121094 195.703125 C 536.5625 192.167969 527.675781 185.027344 524.117188 183.460938 C 521.082031 182.125 518.679688 182.125 515.734375 180.40625 C 511.199219 177.761719 507.464844 173.542969 503.105469 170.582031 C 493.398438 163.988281 479.839844 160.652344 468.464844 159.546875 C 461.203125 158.84375 455.738281 159.042969 455.257812 150.269531 C 454.804688 142.011719 463.425781 132.007812 455.5 125.179688 C 444.851562 116.011719 426.191406 124.726562 414.050781 124.40625 C 407.691406 124.242188 400.777344 121.683594 394.777344 120.210938 C 392.3125 119.601562 390.96875 119.097656 388.515625 119.167969 C 386.339844 119.230469 386.453125 121.746094 383.902344 120.5625 C 380.519531 118.992188 380.15625 112.011719 375.457031 109.777344 C 368.871094 106.640625 363.667969 107.453125 357.402344 110.582031 C 343.714844 117.414062 331.421875 115.949219 316.394531 116.648438 C 307.375 117.066406 299.796875 120.148438 292.203125 124.828125 C 284.929688 129.3125 279.480469 135.730469 272.558594 140.214844 C 265.875 144.542969 256.113281 143.84375 251.273438 133.710938 Z M 251.273438 133.710938 " fill-opacity="1" fill-rule="nonzero"/><path fill="#655861" d="M 359.074219 155.261719 C 355.230469 153.261719 343.273438 156.121094 339 157.230469 C 330.269531 159.523438 322.226562 162.976562 314.09375 166.722656 C 307.292969 169.832031 301.726562 173.628906 294.191406 175.011719 C 286.710938 176.398438 230.230469 183.578125 209.902344 188.332031 C 197.996094 191.105469 127.40625 203.582031 104.464844 206.132812 C 96.675781 207.003906 77.269531 209.261719 70.351562 207.105469 C 67 206.082031 66.558594 204.027344 71.734375 200.28125 C 83.128906 192.058594 222.699219 135.636719 256.21875 124.347656 C 259.515625 125.082031 258.335938 129.308594 260.507812 132.109375 C 262.453125 134.640625 265.410156 135.765625 268.277344 137 C 276.785156 140.65625 286.300781 142.367188 295.542969 143.019531 C 299.96875 143.328125 318.621094 143.429688 334.597656 145.226562 C 348.636719 146.816406 360.613281 149.726562 359.074219 155.261719 Z M 359.074219 155.261719 " fill-opacity="1" fill-rule="nonzero"/><path fill="#fde3da" d="M 263.921875 173.882812 C 269.816406 197.164062 321.015625 183.507812 317.820312 213.386719 C 316.550781 225.28125 308.269531 235.816406 303.496094 246.375 C 298.175781 258.148438 294.082031 272.355469 296.417969 285.265625 C 298.296875 295.671875 301.109375 306.855469 307.167969 315.511719 C 302.976562 302.480469 301.992188 292.761719 303.910156 279.089844 C 305.792969 265.636719 311.835938 249.738281 322.824219 241.003906 C 330.871094 234.605469 341.359375 231.867188 351.328125 230.84375 C 363.222656 229.621094 375.175781 227.804688 387.121094 228.929688 C 395.101562 229.679688 413.890625 233.269531 420.339844 228.242188 C 416.832031 225.507812 410.898438 225.089844 406.59375 223.839844 C 399.59375 221.800781 393.253906 217.808594 387.335938 213.640625 C 376.648438 206.125 366.757812 196.71875 356.695312 188.425781 C 353.082031 185.449219 348.332031 182.550781 343.933594 181.039062 C 337.300781 178.761719 330.835938 180.644531 324.109375 179.347656 C 319.503906 178.457031 315.28125 175.464844 310.707031 174.160156 C 306.183594 172.867188 301.617188 172.316406 296.980469 171.140625 C 287.871094 168.820312 269.941406 158.800781 263.921875 173.882812 Z M 263.921875 173.882812 " fill-opacity="1" fill-rule="nonzero"/><path fill="#0b798f" d="M 301.863281 174.984375 C 313.128906 167.203125 322.707031 161.480469 336.089844 159.023438 C 345.808594 157.246094 355.105469 153.085938 364.957031 153.550781 C 375.089844 154.03125 385.195312 151.871094 395.351562 154.210938 C 400.089844 155.300781 410.441406 156.78125 413 161.226562 C 411.324219 162.964844 406.5625 164.492188 407.820312 167.445312 C 408.410156 168.824219 414.785156 169.78125 416.234375 170.152344 C 420.425781 171.21875 424.066406 170.761719 428.480469 170.582031 C 431.457031 170.460938 437.066406 168.96875 439.875 170.003906 C 445.039062 171.910156 449.171875 181.242188 453.667969 184.78125 C 459.832031 189.628906 468.042969 194.929688 475.648438 197.4375 C 482.179688 199.59375 498.257812 200.582031 501.417969 207.402344 C 494.535156 205.683594 487.550781 207.910156 480.476562 206.78125 C 472.410156 205.496094 465.125 210.683594 457.421875 208.023438 C 443.273438 203.136719 440.503906 207.621094 426.878906 210.960938 C 420.277344 212.578125 419.570312 214.789062 415.203125 220.699219 C 412.117188 224.875 402.714844 215.105469 396.46875 215.710938 C 388.316406 216.496094 381.949219 213.902344 374.871094 209.960938 C 369.226562 206.820312 364.558594 202.554688 358.710938 199.808594 C 351.535156 196.433594 343.5625 195.050781 336.175781 192.167969 C 327.320312 188.710938 318.390625 189.066406 310.246094 185.550781 C 304.253906 182.960938 297.949219 181.863281 301.863281 174.984375 Z M 301.863281 174.984375 " fill-opacity="1" fill-rule="nonzero"/><path fill="#045668" d="M 477.765625 199.777344 C 520.582031 178.855469 574.628906 224.789062 604.230469 251.882812 C 646.320312 290.40625 654.363281 331.847656 654.46875 387.90625 C 654.511719 409.964844 656.914062 441.121094 648.972656 461.296875 C 644.644531 460.085938 641.726562 461.949219 637.277344 458.699219 C 645.425781 477.363281 644.734375 493.761719 645.765625 513.964844 C 646.421875 526.734375 653.324219 559.621094 642.339844 567.664062 C 628.917969 546.765625 620.71875 511.824219 614.621094 487.519531 C 607.496094 459.121094 613.492188 431.738281 599.75 406.148438 C 592.71875 393.0625 591.0625 372.0625 581.800781 359.660156 C 575.671875 351.445312 565.792969 344.289062 559.179688 337.105469 C 541.371094 317.765625 508.382812 293.417969 495.941406 267.359375 C 489.363281 253.578125 483.722656 242.425781 476.03125 229.296875 C 470.371094 219.625 462.046875 203.632812 477.765625 199.777344 Z M 477.765625 199.777344 " fill-opacity="1" fill-rule="nonzero"/><path fill="#0188a9" d="M 394.609375 232.722656 C 392.246094 251.675781 406.921875 333.074219 440.941406 302.257812 C 453.957031 336.371094 471.40625 361.53125 502.148438 376.953125 C 530.726562 391.289062 554.441406 410.304688 583.222656 424.667969 C 574.679688 403.785156 573.367188 374.816406 568.71875 352.359375 C 563.390625 326.609375 558.585938 308.253906 546.578125 284.835938 C 536.65625 265.484375 521.671875 253.523438 508.511719 236.625 C 492.582031 216.171875 501.582031 199.691406 466.648438 199.777344 C 452.4375 199.8125 380.242188 201.609375 394.609375 232.722656 Z M 394.609375 232.722656 " fill-opacity="1" fill-rule="nonzero"/><path fill="#0d0d0b" d="M 346.925781 112.773438 C 342.308594 115.257812 338.050781 118.734375 338.03125 123.65625 C 338.023438 126.5 339.652344 129.1875 341.816406 130.964844 C 346.511719 134.816406 352.183594 138.574219 358.425781 139.5 C 362.15625 140.054688 366.265625 138.625 369.773438 137.300781 C 374.085938 135.671875 377.921875 132.753906 380.96875 129.28125 C 383.035156 126.925781 383.820312 123.625 384.296875 120.605469 C 384.78125 117.554688 383.140625 114.847656 381.167969 112.558594 C 377.179688 107.921875 369.417969 108.0625 363.890625 108.34375 C 360.835938 108.5 357.488281 108.207031 354.605469 109.355469 C 352.4375 110.214844 349.621094 111.320312 346.925781 112.773438 Z M 346.925781 112.773438 " fill-opacity="1" fill-rule="nonzero"/><path fill="#ffffff" d="M 364.59375 127.878906 C 362.957031 128.589844 361.035156 129.539062 361.25 131.667969 C 361.410156 133.277344 362.820312 133.6875 364.234375 133.167969 C 365.4375 132.722656 366.488281 131.5 366.53125 130.171875 C 366.566406 129.027344 365.382812 127.253906 364.238281 128.234375 " fill-opacity="1" fill-rule="nonzero"/><path fill="#ffffff" d="M 362.835938 111.15625 C 361.441406 112.203125 359.230469 113.910156 361.378906 115.566406 C 362.804688 116.675781 365.066406 115.699219 366.179688 114.679688 C 370.296875 110.929688 363.007812 110.0625 361.957031 112.386719 " fill-opacity="1" fill-rule="nonzero"/><path fill="#6b636c" d="M 295.539062 143.019531 C 295.539062 143.019531 244.277344 156.679688 220.480469 162.082031 C 197.824219 167.230469 171.582031 176.621094 148.828125 181.304688 C 136.53125 183.839844 96.195312 197.5 70.347656 207.105469 C 66.996094 206.082031 66.554688 204.027344 71.730469 200.28125 C 83.125 192.058594 222.695312 135.636719 256.214844 124.347656 C 259.511719 125.082031 258.332031 129.308594 260.503906 132.109375 C 262.453125 134.640625 265.40625 135.765625 268.273438 137 C 276.785156 140.660156 286.300781 142.371094 295.539062 143.019531 C 299.96875 143.328125 295.539062 143.019531 295.539062 143.019531 Z M 295.539062 143.019531 " fill-opacity="1" fill-rule="nonzero"/><path fill="#cca175" d="M 647.378906 639.632812 C 631.535156 652.070312 630.71875 657.234375 630.335938 673.09375 C 630.121094 681.992188 626.898438 691.996094 626.957031 700.800781 C 626.984375 705.3125 629.578125 717.492188 634.585938 719.308594 C 644.710938 722.976562 643.910156 711.636719 648.472656 706.550781 C 658.921875 694.90625 665.957031 689.265625 667.652344 670.183594 C 668.671875 658.667969 664.804688 639.460938 647.378906 639.632812 Z M 647.378906 639.632812 " fill-opacity="1" fill-rule="nonzero"/><path fill="#cca175" d="M 368.316406 856.386719 C 377.160156 822.078125 388.035156 783.152344 405.304688 751.695312 C 411.839844 739.792969 419.371094 734.332031 423.21875 719.59375 C 428.179688 700.605469 426.53125 681.929688 433.726562 663.269531 C 439.21875 649.023438 451.835938 633.707031 451.484375 618.214844 C 457.242188 639.367188 446.054688 646.828125 440.074219 667.460938 C 437.902344 674.9375 439.351562 681.449219 438.136719 689.039062 C 436.074219 701.917969 429.199219 714.628906 424.277344 726.734375 C 413.75 752.625 415.597656 779.324219 404.621094 805.546875 C 396.300781 825.417969 390.722656 847.015625 385.398438 868.023438 C 381.230469 884.484375 380.019531 904.796875 368.320312 917.335938 C 357.449219 909.042969 374.246094 861.171875 368.316406 856.386719 Z M 368.316406 856.386719 " fill-opacity="1" fill-rule="nonzero"/><path fill="#cca175" d="M 403.199219 908.757812 C 405.347656 872.074219 404.632812 828.996094 418.335938 794.484375 C 423.378906 781.777344 436.359375 767.945312 437.824219 754.679688 C 430.773438 762.367188 426.867188 787.183594 424.640625 798.304688 C 421.855469 812.199219 420.761719 827.28125 416.242188 842.269531 C 409.101562 865.949219 404.085938 892.84375 413.511719 916.171875 C 412.488281 918.871094 412.355469 915.972656 403.199219 908.757812 Z M 403.199219 908.757812 " fill-opacity="1" fill-rule="nonzero"/><path fill="#cca175" d="M 440.988281 726.917969 C 452.3125 690.59375 472.679688 648.882812 474.640625 610.6875 C 498.960938 611.277344 480.335938 635.242188 474.050781 646.828125 C 466.042969 661.589844 459.367188 677.929688 455.847656 693.777344 C 448.875 725.234375 452.289062 760.773438 430.425781 787.925781 C 427.96875 775.722656 433.558594 756.785156 438.410156 744.367188 C 441.660156 736.042969 458.117188 714.46875 451.488281 708.117188 C 449.773438 714.152344 448.125 721.777344 440.988281 726.917969 Z M 440.988281 726.917969 " fill-opacity="1" fill-rule="nonzero"/><path fill="#cca175" d="M 458.429688 777.832031 C 451.601562 814.4375 438.230469 848.175781 429.488281 884.097656 C 425.363281 901.054688 428.476562 921.167969 422.09375 937.332031 C 419.867188 931.609375 419.863281 924.835938 422.492188 918.984375 C 424.691406 925.796875 423.914062 934.828125 420.566406 941.773438 C 421.300781 919.960938 431.234375 893.167969 442.109375 875.421875 C 441.875 877.605469 441.699219 879.695312 441.242188 882.015625 C 443.171875 860.644531 457.214844 843.054688 459.878906 822.136719 C 460.230469 841.570312 453.390625 856.652344 448.984375 875.175781 C 446.179688 886.96875 446.1875 901.746094 444.957031 912.25 C 445.957031 893.734375 452.828125 870.445312 460.277344 853.566406 C 460.554688 856.339844 460.78125 858.265625 459.808594 861.695312 C 458.800781 842.601562 467.125 808.941406 480.011719 794.902344 C 477.285156 789.613281 476.617188 782.929688 477.394531 776.757812 C 476.613281 778.132812 475.164062 780.363281 474.675781 781.257812 C 474.378906 763.476562 483.511719 745.960938 487.539062 728.679688 C 491.78125 710.453125 492.371094 688.78125 500.324219 672.019531 C 494.675781 695.460938 486.179688 716.480469 476.933594 738.523438 C 468.964844 757.515625 470.058594 782.769531 460.289062 799.621094 C 452.679688 776.585938 462.140625 759.386719 465.039062 737 C 466.039062 729.300781 463.519531 722.738281 464.1875 715.222656 C 465.519531 700.167969 477.011719 687.246094 475.65625 671.742188 C 464.371094 676.800781 467.71875 705.117188 465.375 716.074219 C 462.59375 729.09375 457.042969 741.566406 451.9375 753.78125 C 444.113281 772.492188 449.726562 792.453125 449.71875 812.75 " fill-opacity="1" fill-rule="nonzero"/><path fill="#cca175" d="M 581.921875 741.378906 C 584.339844 736.972656 587.113281 732.75 590.46875 728.8125 C 579.8125 754.71875 566.054688 785.246094 561.375 812.652344 C 561.800781 810.15625 556.871094 802.511719 557.34375 797.898438 C 558.015625 791.316406 565.328125 781.335938 567.90625 774.898438 C 572.425781 763.621094 576.128906 751.960938 581.921875 741.378906 Z M 581.921875 741.378906 " fill-opacity="1" fill-rule="nonzero"/></svg>